<svg xmlns="http://www.w3.org/2000/svg" xmlns:xlink="http://www.w3.org/1999/xlink" width="46" height="46" viewBox="0 0 46 46"><defs><linearGradient id="a" x1="0.904" x2="0.206" y2="0.926" gradientUnits="objectBoundingBox"><stop offset="0" stop-color="#f91cf2"/><stop offset="1" stop-color="#1d0e7d"/></linearGradient></defs><g transform="translate(-32 -235)"><g transform="translate(32 235)" fill="none" stroke="#471cf9" stroke-width="1"><circle cx="23" cy="23" r="23" stroke="none"/><circle cx="23" cy="23" r="22.5" fill="none"/></g><path d="M5.355,20.478C3.877,19.37,2.032,18.077,0,16.6l7.2-2.77,2.954,2.216a28.913,28.913,0,0,1-4.8,4.432Zm19.758-7.755c-.554-1.478-.923-2.954-1.478-4.432A16.234,16.234,0,0,0,21.6,3.859C21.235,3.3,20.5,2.011,19.573,2.011c-.185,0-.369.185-.554.185a3.473,3.473,0,0,0-1.478,2.032,37.463,37.463,0,0,1-2.4,3.324,4.026,4.026,0,0,1-.738.923,15.88,15.88,0,0,1-1.847,1.292c-.185,0-.369.185-.554.185a2.756,2.756,0,0,0-1.292.554c-.554.554-1.107,1.292-1.662,1.847,0,.185-.185.369-.369.554l2.77,2.032c2.032-2.4,4.432-4.8,6.094-9.417a21.7,21.7,0,0,1-4.986,10.341A49.21,49.21,0,0,1,7.2,21.032a2.347,2.347,0,0,1,1.478.185c1.478.554,2.216,2.585,2.77,4.062.369,1.107.923,2.032,1.292,3.139a6.516,6.516,0,0,0,3.324-1.847c.923-.924,1.847-2.032,2.77-2.954C20.5,21.584,22.526,19,25.111,20.292a5.744,5.744,0,0,1,1.107.738A9.3,9.3,0,0,1,27.7,22.322a13.5,13.5,0,0,0,2.032,1.662,120.1,120.1,0,0,1-4.617-11.264Z" transform="translate(40.136 242.786)" fill="url(#a)"/></g></svg>