<svg xmlns="http://www.w3.org/2000/svg" width="28.923" height="23.138" viewBox="0 0 28.923 23.138"><path d="M9.4,15.908a1.034,1.034,0,0,0-.319.049,5.961,5.961,0,0,1-1.85.312,5.967,5.967,0,0,1-1.851-.312,1.031,1.031,0,0,0-.319-.049A5.062,5.062,0,0,0,0,21a2.164,2.164,0,0,0,2.169,2.141H12.292A2.164,2.164,0,0,0,14.461,21,5.062,5.062,0,0,0,9.4,15.908ZM7.231,14.462a4.338,4.338,0,1,0-4.338-4.338A4.338,4.338,0,0,0,7.231,14.462ZM26.754,0H9.4A2.209,2.209,0,0,0,7.231,2.241v2.1a5.719,5.719,0,0,1,2.892.8V2.892H26.031V15.908H23.138V13.015H17.354v2.892H13.908A5.76,5.76,0,0,1,15.7,18.8H26.754a2.209,2.209,0,0,0,2.169-2.241V2.241A2.209,2.209,0,0,0,26.754,0Z" transform="translate(0)" fill="#fff"/></svg>