<svg xmlns="http://www.w3.org/2000/svg" xmlns:xlink="http://www.w3.org/1999/xlink" width="145.978" height="129.663" viewBox="0 0 145.978 129.663"><defs><linearGradient id="a" x1="0.904" x2="0.206" y2="0.926" gradientUnits="objectBoundingBox"><stop offset="0" stop-color="#f91cf2"/><stop offset="1" stop-color="#1d0e7d"/></linearGradient></defs><path d="M26.3,92.689C19.04,87.251,9.976,80.9,0,73.65l35.366-13.6L49.874,70.931C38.991,83.626,31.741,88.158,26.3,92.7ZM123.319,54.61c-2.719-7.257-4.532-14.508-7.257-21.765-2.719-8.163-5.438-15.414-9.976-21.765-1.813-2.719-5.438-9.07-9.976-9.07-.906,0-1.813.906-2.719.906-2.719.906-6.344,6.344-7.257,9.976a183.956,183.956,0,0,1-11.789,16.32,19.771,19.771,0,0,1-3.625,4.532c-2.719,1.813-5.438,4.532-9.07,6.344-.906,0-1.813.906-2.719.906-2.719,0-4.532,1.813-6.344,2.719-2.719,2.719-5.438,6.344-8.163,9.07,0,.906-.906,1.813-1.813,2.719l13.6,9.976C66.188,53.692,77.977,41.9,86.134,19.238c0,0-2.719,24.484-24.484,50.78-13.6,15.414-24.484,23.577-26.3,25.39a11.524,11.524,0,0,1,7.257.906c7.257,2.719,10.882,12.7,13.6,19.946,1.813,5.438,4.532,9.976,6.344,15.414a32,32,0,0,0,16.32-9.07c4.532-4.538,9.07-9.976,13.6-14.508,8.163-9.976,18.133-22.671,30.828-16.32a28.205,28.205,0,0,1,5.438,3.625A45.685,45.685,0,0,1,136,101.747c4.532,3.625,6.344,6.344,9.976,8.163-9.07-18.133-15.414-36.272-22.671-55.312Z" transform="translate(0 -2.012)" fill="url(#a)"/></svg>