<svg xmlns="http://www.w3.org/2000/svg" width="23.138" height="23.138" viewBox="0 0 23.138 23.138"><path d="M22.412,7.308,18.08,2.976a2.479,2.479,0,0,0-1.753-.726H2.479A2.479,2.479,0,0,0,0,4.729v18.18a2.479,2.479,0,0,0,2.479,2.479h18.18a2.479,2.479,0,0,0,2.479-2.479V9.061a2.479,2.479,0,0,0-.726-1.753ZM11.569,22.083a3.305,3.305,0,1,1,3.305-3.305A3.305,3.305,0,0,1,11.569,22.083ZM16.527,6.355v5.192a.62.62,0,0,1-.62.62H3.925a.62.62,0,0,1-.62-.62V6.175a.62.62,0,0,1,.62-.62h11.8a.62.62,0,0,1,.438.182l.18.18a.62.62,0,0,1,.182.438Z" transform="translate(0 -2.25)" fill="#fff"/></svg>